# xmcd
#
# Track frame offsets:
#	150
#	12205
#	28691
#	39890
#	53712
#	66577
#	81380
#	92912
#	113322
#	129121
#	143941
#	158288
#
# Disc length: 2246 seconds
# Revision: 0
# Processed by: cddbd v1.5.2PL0 Copyright (c) Steve Scherf et al.
# Submitted via: dBpowerAMP V12.0
#
DISCID=8c08c40c
DTITLE=Brigitte DeMeyer - Rose of Jericho
DYEAR=2011
DGENRE=Country
TTITLE0=One Wish
TTITLE1=This Fix I'm In
TTITLE2=Alright A-Coming
TTITLE3=Miss Johnson's Honey
TTITLE4=Mr. Taxi Man
TTITLE5=Amen Said the Deacon
TTITLE6=Jeremiah's Blues
TTITLE7=Sip Molasses
TTITLE8=Rose of Jericho
TTITLE9=Say Big Poppa
TTITLE10=West Side Mama, South Side Me
TTITLE11=Somebody, Please
EXTD=
EXTT0=
EXTT1=
EXTT2=
EXTT3=
EXTT4=
EXTT5=
EXTT6=
EXTT7=
EXTT8=
EXTT9=
EXTT10=
EXTT11=
PLAYORDER=
